<?xml version="1.0" encoding="UTF-8" standalone="no"?>
<!-- Created with Inkscape (http://www.inkscape.org/) -->

<svg
   version="1.1"
   id="svg1"
   width="128"
   height="128"
   viewBox="0 0 128 128"
   sodipodi:docname="wxt.svg"
   xml:space="preserve"
   inkscape:export-filename="icon/16.png"
   inkscape:export-xdpi="12"
   inkscape:export-ydpi="12"
   inkscape:version="1.4 (e7c3feb100, 2024-10-09)"
   xmlns:inkscape="http://www.inkscape.org/namespaces/inkscape"
   xmlns:sodipodi="http://sodipodi.sourceforge.net/DTD/sodipodi-0.dtd"
   xmlns="http://www.w3.org/2000/svg"
   xmlns:svg="http://www.w3.org/2000/svg"><defs
     id="defs1" /><sodipodi:namedview
     id="namedview1"
     pagecolor="#ffffff"
     bordercolor="#000000"
     borderopacity="0.25"
     inkscape:showpageshadow="2"
     inkscape:pageopacity="0.0"
     inkscape:pagecheckerboard="0"
     inkscape:deskcolor="#d1d1d1"
     showgrid="false"
     inkscape:zoom="5.6568544"
     inkscape:cx="48.171648"
     inkscape:cy="61.518288"
     inkscape:window-width="1918"
     inkscape:window-height="1035"
     inkscape:window-x="0"
     inkscape:window-y="0"
     inkscape:window-maximized="1"
     inkscape:current-layer="g1" /><g
     inkscape:groupmode="layer"
     inkscape:label="Image"
     id="g1"
     transform="translate(123.47513,176.62548)"><path
       d="m -79.670379,-49.124661 q -3.832771,0 -6.562166,-2.403079 -2.729393,-2.403079 -2.729393,-5.777619 v -44.993861 q 0,-3.37454 2.729393,-5.77762 2.729395,-2.40309 6.562166,-2.40309 h 18.583122 v -8.18068 q 0,-3.37455 2.729398,-5.77763 2.729395,-2.40309 6.562165,-2.40309 h 18.583126 q 3.832769,0 6.562166,2.40309 2.729395,2.40308 2.729395,5.77763 v 8.18068 h 18.5831249 q 3.8327701,0 6.5621647,2.40309 2.7293982,2.40308 2.7293982,5.77762 v 44.993861 q 0,3.37454 -2.7293982,5.777619 -2.7293946,2.403079 -6.5621647,2.403079 z m 27.874685,-61.355269 h 18.583126 v -8.18068 h -18.583126 z"
       id="path1-2"
       style="fill:#891f05;fill-opacity:1;stroke-width:0.108981" /><path
       style="fill:#1f0589;stroke:none;stroke-width:0.555215;stroke-dasharray:none;stroke-opacity:1"
       d="m -94.650955,-173.64364 c -2.444441,1.66337 -4.755752,3.32211 -6.814125,5.52539 -5.79219,6.19992 -9.47093,14.10791 -14.07153,21.24201 -1.6133,2.50176 -3.73493,4.75559 -5.14489,7.37978 -1.54226,2.87047 -2.09983,6.28578 -1.85395,9.55133 0.29414,3.90679 2.28953,8.10763 6.14958,9.1234 1.24069,0.32649 2.50661,0.31931 3.76273,0.0994 0.60185,-0.1054 1.25747,-0.32626 1.47257,-1.01002 0.44291,-1.40792 -2.14259,-2.37356 -3.00158,-2.79251 -2.66109,-1.29792 -5.41292,-3.61493 -4.1861,-7.09726 1.39571,-3.96183 5.23364,-6.68088 7.9465,-9.59263 0.65969,-0.70801 1.32928,-1.43387 1.87267,-2.24673 0.5678,-0.84937 0.87756,-1.81179 1.40265,-2.67243 1.56051,-2.55787 4.40963,-5.32572 7.55047,-4.29955 0.595826,0.19464 1.167072,0.44052 1.680504,0.81806 0.731416,0.5378 1.380247,1.22124 1.881744,2.00133 2.184443,3.39786 2.135747,7.54427 2.826507,11.43246 1.320977,7.4355 3.042666,14.85813 3.608825,22.41556 0.241927,3.22942 0.838769,8.2971 -1.610115,10.78555 -3.508409,3.565095 -7.9532,6.07064 -12.033535,8.806121 -2.50038,1.676275 -4.90651,3.935023 -7.86931,4.624549 -1.03391,0.2406 -2.02176,0.374352 -3.04582,-0.01205 -1.0691,-0.402513 -1.97494,-1.247805 -3.14167,-1.34814 -0.71359,-0.06136 -2.24755,0.166061 -2.0845,1.242464 0.10492,0.692733 0.6821,1.209204 1.09785,1.706184 1.3952,1.667896 3.32422,2.850047 5.28499,3.60665 6.94974,2.681688 15.099397,0.555614 21.945874,-1.516423 4.13167,-1.250445 8.207269,-2.691568 12.30212,-4.06786 3.348736,-1.125529 6.700905,-2.096292 9.975942,-3.452124 9.85777,-4.08098 19.368935,-9.110061 28.595939,-14.564571 8.415042,-4.97453 16.613009,-10.67879 23.675221,-17.65688 3.85593,-3.80999 7.6808299,-8.54546 9.094289,-14.02121 0.3987677,-1.54481 0.5836377,-3.21875 0.4152809,-4.8159 -0.060108,-0.5702 -0.23727,-1.46438 -0.9448043,-1.41618 -0.8590778,0.0584 -1.645058,1.21876 -2.1458426,1.84137 -1.455192,1.80928 -2.694623,3.58169 -4.54233,4.99558 -3.26784,2.50059 -7.246005,3.74935 -11.070903,4.94675 -4.231639,1.32473 -7.951494,3.12853 -12.369699,1.43245 -0.961094,-0.36895 -1.872455,-0.89106 -2.727705,-1.48062 -2.072774,-1.4288 -3.753802,-3.34523 -5.45436,-5.2169 -1.839658,-2.02476 -3.699261,-4.03149 -5.539285,-6.05691 -6.939584,-7.63882 -13.665205,-15.5076 -20.981666,-22.75594 -2.40203,-2.37967 -4.739438,-4.92479 -7.691322,-6.55051 -4.525944,-2.49259 -9.974596,-1.82095 -14.217201,1.06605 z"
       id="path1"
       sodipodi:nodetypes="cccccscccccccccccsssccsscscscssssccssscscsccc" /><g
       style="fill:#00f420;fill-opacity:1"
       id="g2"
       transform="matrix(0.53190789,0,0,0.43815789,31.447369,362.07895)" /></g><g
     style="fill:#891f05;fill-opacity:1"
     id="g3"
     transform="matrix(0.59203451,0,0,0.38878783,120.53254,534.11383)" /></svg>
